<svg xmlns="http://www.w3.org/2000/svg" viewBox="0 0 35.318 35.318"><path d="M23.71 34.689c-.172.062-.345.137-.522.168-.678.121-1.112-.229-1.116-.922-.009-1.287-.009-2.572.012-3.859.022-1.48-.012-2.941-1.139-4.162.67-.12 1.266-.204 1.849-.338 3.862-.887 5.868-3.323 6.124-7.366.131-2.058-.236-3.946-1.604-5.567-.099-.114-.104-.373-.057-.539.364-1.34.258-2.649-.166-3.959-.105-.327-.279-.428-.602-.407-1.134.063-2.173.461-3.089 1.073-.883.593-1.705.722-2.754.482-2.31-.521-4.635-.369-6.94.165-.261.062-.612-.021-.851-.161-1.082-.634-2.164-1.25-3.412-1.496-.965-.188-1.049-.14-1.305.793-.322 1.176-.354 2.353-.025 3.536.047.172-.002.448-.117.575-2.557 2.853-1.631 8.244.092 10.309 1.34 1.604 3.12 2.326 5.096 2.701.345.064.688.113 1.033.173-.296.77-.562 1.497-.863 2.212-.059.138-.246.254-.399.312-1.938.752-3.604.199-4.713-1.56-.593-.938-1.354-1.639-2.488-1.842-.036-.007-.073-.026-.106-.021-.305.08-.607.164-.911.246.171.238.292.558.521.701.961.608 1.586 1.475 1.999 2.498.649 1.604 1.909 2.319 3.546 2.459.799.065 1.606.01 2.481.01 0 .996.036 2.133-.015 3.265-.026.61-.639.854-1.373.604-1.947-.666-3.752-1.621-5.311-2.963C.956 26.96-1.214 20.83.657 13.655 2.522 6.503 7.383 2.116 14.651.739 24.708-1.163 34.235 6.161 35.233 16.37c.788 8.048-3.949 15.579-11.523 18.319zm-9.481-8.839l-.016.038.055.009c.014.001.026.026-.039-.047zm-4.55 3.181c.157.097.307.22.477.273.062.02.177-.121.38-.271-.282-.107-.448-.201-.623-.225-.068-.008-.156.145-.234.223zm1.433.246c.023.105.232.236.355.234.119-.002.235-.16.354-.25-.108-.099-.216-.195-.548-.494-.072.208-.191.376-.161.51zm1.758-.423c-.148.035-.273.172-.408.266.079.1.158.193.285.35.175-.16.294-.271.414-.379-.1-.087-.217-.255-.291-.237zm-4.358-.593c.082.155.209.289.381.508.115-.188.24-.332.218-.361a1.931 1.931 0 0 0-.403-.367c-.01-.008-.213.186-.196.22z" fill="#FFF"/></svg>